<svg width="14" height="9" viewBox="0 0 14 9" fill="none" xmlns="http://www.w3.org/2000/svg">
<path d="M1.90735e-06 4.45809C0.00658989 4.61743 0.0758371 4.8016 0.191178 4.91776L3.95589 8.7065C4.21099 8.92363 4.70017 9.01327 4.9853 8.76222C5.26614 8.51496 5.25779 8.03542 4.978 7.78718L2.33095 5.12669L13.2941 5.12669C13.684 5.12669 14 4.82734 14 4.45809C14 4.08884 13.684 3.78949 13.2941 3.78949L2.33095 3.78949L4.978 1.129C5.21887 0.900457 5.26339 0.404048 4.9853 0.153957C4.70727 -0.0961103 4.20052 -0.0162115 3.95589 0.209699L0.191178 3.99842C0.062355 4.12808 -0.000421524 4.2802 1.90735e-06 4.45809Z" fill="#828282"/>
</svg>
