<svg width="15" height="11" viewBox="0 0 15 11" fill="none" xmlns="http://www.w3.org/2000/svg">
<path d="M14.0041 5.78676C13.9974 5.61517 13.9279 5.41689 13.8125 5.2919L10.0443 1.21493C9.78899 0.981319 9.29974 0.885209 9.01484 1.15581C8.73422 1.42233 8.74301 1.93875 9.02303 2.20585L11.6725 5.06873L0.709371 5.07811C0.319536 5.07844 0.00376542 5.40108 0.00410565 5.79874C0.00444587 6.1964 0.320768 6.5185 0.710603 6.51816L11.6738 6.50879L9.02917 9.37619C8.78851 9.62252 8.74445 10.1572 9.02277 10.4262C9.30102 10.6953 9.8077 10.6088 10.0521 10.3653L13.8133 6.28195C13.942 6.14221 14.0047 5.97833 14.0041 5.78676Z" fill="#828282"/>
</svg>
